<svg xmlns="http://www.w3.org/2000/svg" xml:space="preserve" width="1500" height="1500" fill="#fff" stroke="#fff" data-id="lg_8bAhEBwnrHSw9zXk8L" data-version="1" viewBox="0 0 1500 1500"><path fill="#eaeaea" stroke="transparent" d="M0 0h1500v1500H0z"/><g data-padding="20"><g transform="translate(-571.429 -586.193)scale(1.72194)"><rect width="434.661" height="93.79" x="161.272" y="341.225" fill="none" rx="0" ry="0" transform="matrix(.97 0 0 .97 469.51 402.4)"/><path fill="#686868" d="M670.292 804.008q-16.665-1.047-31.477-.32l-.64.078q-.65.087-1.329.126-.688.04-1.687.077-1.01.04-1.737-.038-6.033-.563-7.566-5.47-.485-1.699.398-3.706.33-.806 1.048-1.93 1.047-1.61 2.9-3.949 2.25-2.978 5.15-6.363l5.481-6.363 6.596-7.08 5.316-6.199 5.635-6.276.408-.573.718-.882.805-.96h-12.154q-10.302 0-15.782 1.037-1.688.33-3.056-.6-1.368-.923-1.697-2.57-.32-1.66.61-3.028.922-1.368 2.532-1.688 6.199-1.203 17.393-1.203h18.032q.165 0 .32.078.33.078.563.155.97.243 1.775 1.135 2.095 2.415.97 6.033-.563 1.688-1.94 3.783-.805 1.368-2.086 2.9l-.65.806q-.397.485-.485.562l-17.712 19.73-5.47 6.354-4.909 6.043q-1.048 1.368-1.61 2.173.562 0 1.688-.126 1.125-.117 1.852-.117 15.22-.727 32.282.32 1.697.088 2.784 1.33 1.086 1.25.999 2.938-.078 1.688-1.329 2.774-1.242 1.097-2.94 1.01m50.403-.65q-10.865.155-34.213-.242-1.61 0-2.784-1.213-1.164-1.203-1.164-2.813-.485-.97-.485-2.018.165-5.47.165-15.772 0-10.31.078-14.016 0-1.368-.078-4.782-.077-3.424 0-6.364t.485-5.519q.155-1.125.96-2.008.806-.882 1.93-1.212 1.048-.96 2.581-1.048 5.956-.155 17.033-.233 11.068-.087 15.093-.087 1.688 0 2.852 1.174 1.174 1.164 1.174 2.852 0 1.697-1.174 2.861-1.164 1.164-2.852 1.164-4.268 0-14.375.087-10.098.078-15.578.156-.243 1.125-.117 6.16.117 5.033.117 6.964v3.298q3.948-.243 8.42-.243 4.461 0 10.136.087 5.674.078 8.42.078 1.687 0 2.851 1.164 1.174 1.174 1.174 2.862 0 1.687-1.174 2.861-1.164 1.164-2.851 1.164-2.823 0-8.498-.078-5.674-.087-10.107-.087-4.423 0-8.449.243 0 11.436-.077 16.344 19.642.32 30.35.165 1.689 0 2.892 1.125 1.212 1.125 1.212 2.823 0 1.688-1.125 2.89-1.125 1.213-2.823 1.213m56.125.563q-.563 0-1.048-.165-2.328.407-3.86-1.368-2.173-2.658-4.55-5.995-2.376-3.346-3.9-5.76l-4.025-6.355-3.705-5.8q-5.48-8.45-12.562-17.79-.077 6.76.282 19.807.358 13.037.358 19.235 0 1.698-1.164 2.862t-2.861 1.164q-1.688 0-2.852-1.164-1.174-1.164-1.174-2.862 0-4.83-.397-21.854-.408-17.033-.078-26.21.078-1.202.563-2.492.397-1.125 1.61-2.25 1.28-.893 2.978-.728 1.688.155 2.735 1.445 11.437 14.25 19.323 26.491l3.298 5.228 3.783 5.966 3.307 4.908q.398-26.81.156-40.013 0-1.687 1.125-2.9 1.135-1.203 2.822-1.203t2.9 1.126q1.204 1.125 1.204 2.813.164 10.068-.243 49.916 0 1.61-1.203 2.784-1.212 1.164-2.822 1.164m39.207-4.259q0 1.687-1.203 2.822-1.212 1.126-2.9 1.126t-2.813-1.213q-1.135-1.203-1.135-2.9.087-2.813-.078-22.776-.077-14.579.485-22.543-8.778-.087-14.812.156-1.697.077-2.9-1.087-1.212-1.164-1.29-2.813-.078-1.659 1.086-2.86 1.174-1.214 2.784-1.29 6.917-.244 19.236-.157 12.319.078 19.244 0 1.688 0 2.9 1.126 1.203 1.125 1.203 2.813 0 1.697-1.125 2.9-1.125 1.212-2.813 1.212-5.723.078-15.462.078-.562 7.73-.485 22.378.165 20.05.078 23.028m21.33 1.601q-.64 1.61-2.212 2.25-1.571.65-3.142 0-1.572-.64-2.212-2.21-.65-1.573 0-3.096 1.61-3.947 4.23-11.998 2.609-8.05 3.734-10.874.572-1.61 4.598-11.427 3.783-9.66 5.868-15.704.572-1.61 2.056-2.377 1.494-.756 3.104-.194.718.243 1.28.718 1.611.573 2.26 2.183l20.05 49.51q.641 1.61 0 3.18-.65 1.572-2.22 2.212-1.572.65-3.134 0-1.571-.64-2.22-2.173l-6.034-15.617q-3.298.155-3.706.155-10.864.407-17.072.407-3.618 10.632-5.228 15.055m8.216-23.27q6.76-.078 14.492-.32l-7.334-17.713Zm55.639 26.49q-5.713 0-10.31-2.21-4.589-2.213-7.198-6.122-2.62-3.91-2.62-8.895 0-1.93 1.252-3.104 1.242-1.164 2.93-1.164 1.29 0 2.337.805t1.29 2.416q1.126 10.388 13.367 10.388 5.878 0 9.254-2.58 3.385-2.58 3.385-6.606 0-2.415-2.338-4.064t-6.363-2.94l-2.493-.882q-7.973-2.658-11.426-4.345-4.996-2.493-7.45-5.879t-2.454-7.973q0-4.025 2.57-7.73 2.58-3.697 7.208-5.996 4.626-2.289 10.35-2.289 5.955 0 10.621 2.173 4.675 2.173 7.246 5.791 2.58 3.628 2.58 7.73 0 2.096-1.164 3.26-1.174 1.174-2.861 1.174-1.61 0-2.736-1.174-1.135-1.164-1.135-3.094 0-2.018-1.726-3.91-1.727-1.89-4.666-3.055-2.94-1.173-6.402-1.173-5.956 0-8.856 2.056t-3.065 5.674q-.078 1.93 1.212 3.386 1.29 1.445 4.026 2.978 2.57 1.367 5.47 2.531 2.9 1.174 7.731 2.784 6.441 2.173 10.263 5.675 3.832 3.501 3.832 9.06 0 5.15-3.066 9.088-3.055 3.948-8.012 6.082-4.947 2.134-10.583 2.134m70.044-2.24-20.448-26.007-8.38 6.926q.087 9.42.407 16.335.078 1.697-1.009 2.94-1.086 1.25-2.774 1.328-1.688.087-2.939-1t-1.329-2.783q-.242-4.83-.32-9.497-.087-5.8-.087-11.834 0-6.043-.078-9.418 0-2.095-.32-8.662-.32-6.558-.242-10.505 0-1.688 1.212-2.813 1.203-1.126 2.89-1.126 1.698 0 2.823 1.203 1.126 1.213 1.126 2.9-.078 3.861.242 10.302t.32 8.536q0 1.775.078 3.783 12.648-10.544 26.248-25.356 1.125-1.212 2.823-1.29 1.687-.078 2.9 1.048 1.203 1.125 1.28 2.813.088 1.697-1.047 2.9-9.012 9.981-17.79 17.955l20.69 26.325q1.048 1.29.844 2.94-.194 1.65-1.484 2.696t-2.94.844q-1.648-.204-2.696-1.484m30.594 2.241q-5.713 0-10.311-2.21-4.588-2.213-7.198-6.122-2.619-3.91-2.619-8.895 0-1.93 1.252-3.104 1.241-1.164 2.93-1.164 1.29 0 2.337.805t1.29 2.416q1.125 10.388 13.367 10.388 5.878 0 9.253-2.58 3.386-2.58 3.386-6.606 0-2.415-2.338-4.064t-6.363-2.94l-2.493-.882q-7.974-2.658-11.427-4.345-4.995-2.493-7.45-5.879t-2.454-7.973q0-4.025 2.571-7.73 2.58-3.697 7.207-5.996 4.627-2.289 10.35-2.289 5.956 0 10.622 2.173 4.675 2.173 7.245 5.791 2.58 3.628 2.58 7.73 0 2.096-1.163 3.26-1.174 1.174-2.862 1.174-1.61 0-2.735-1.174-1.135-1.164-1.135-3.094 0-2.018-1.727-3.91-1.726-1.89-4.666-3.055-2.939-1.173-6.402-1.173-5.955 0-8.856 2.056t-3.065 5.674q-.077 1.93 1.213 3.386 1.29 1.445 4.025 2.978 2.57 1.367 5.471 2.531 2.9 1.174 7.73 2.784 6.442 2.173 10.264 5.675 3.831 3.501 3.831 9.06 0 5.15-3.065 9.088-3.056 3.948-8.012 6.082-4.947 2.134-10.583 2.134"/><path fill="#686868" fill-rule="evenodd" d="M528.934 824.396c-23.572-3.542-41.167-23.545-41.673-47.376s16.223-44.564 39.623-49.104a23.79 23.79 0 1 1 9.08 46.7 26.55 26.55 0 0 0-21.01 31.13c2.8 14.4 19.37 19.46 13.98 18.65m0 0"/><path fill="#686868" fill-rule="evenodd" d="M584.334 766.646a48.96 48.96 0 0 1-38.75 57.4 23.79 23.79 0 1 1-9.08-46.7 26.55 26.55 0 0 0 21.01-31.13c-2.8-14.4-19.37-19.46-13.98-18.65 20.497 3.086 36.835 18.735 40.8 39.08m0 0"/><path fill="#686868" fill-rule="evenodd" d="M551.314 732.476c4.03 3.88 6.81 8.4 7.85 13.78 3.041 15.555-7.09 30.635-22.64 33.7-11.604 2.29-19.164 13.541-16.9 25.15a21.4 21.4 0 0 0 25.06 16.97c25.15-4.9 41.57-29.34 36.68-54.58a46.5 46.5 0 0 0-30.05-35.02m-20.59 26a7.5 7.5 0 1 0 0-15 7.5 7.5 0 0 0 0 15m0 0"/><path fill="#686868" fill-rule="evenodd" d="M540.724 808.476a7.5 7.5 0 1 0 0-15 7.5 7.5 0 0 0 0 15m0 0"/></g><path fill="transparent" stroke="transparent" stroke-width="1.786" d="M250 663.393h1000v173.214H250z"/></g></svg>